<svg  xmlns="http://www.w3.org/2000/svg" xmlns:xlink="http://www.w3.org/1999/xlink" width="937" height="300" viewBox="0 0 961 324"><path transform="translate(0 100)" d="M45.7,-84.1L54,-84.1L54,7.4L45.7,7.4L45.7,-84.1ZM88.8,-23.4L11.1,-23.4L11.1,-66.8L88.8,-66.8L88.8,-23.4ZM19.3,-58.9L19.3,-31.4L80.6,-31.4L80.6,-58.9L19.3,-58.9Z"></path><path transform="translate(100 100)" d="M42.6,-82L50.8,-84.2Q52,-81.2 53.9,-75.4Q55.8,-69.6 56.9,-65.7L47.9,-66.1Q47,-69.2 45.4,-74.15Q43.8,-79.1 42.6,-82ZM6.3,-68.7L93.4,-68.7L93.4,-60.8L6.3,-60.8L6.3,-68.7ZM8,7.5L4.1,-0.6Q25.3,-7.9 38.15,-16.25Q51,-24.6 58.2,-36.05Q65.4,-47.5 69.2,-64.6L78.1,-64.4Q73.6,-45.4 65.5,-32.5Q57.4,-19.6 43.7,-10.15Q30,-0.7 8,7.5ZM21.1,-64.8L29.8,-64.9Q33.8,-47.7 41.5,-35.95Q49.2,-24.2 62.25,-15.9Q75.3,-7.6 95.8,-1.3L92.4,7Q70.4,-0.8 56.6,-10.1Q42.8,-19.4 34.4,-32.45Q26,-45.5 21.1,-64.8Z"></path><path transform="translate(200 100)" d="M10.2,6.8L10.2,-79.1L89.7,-79.1L89.7,-7Q89.7,-1.7 88.6,0.95Q87.5,3.6 84.9,4.7Q82.3,5.8 77,6Q72.6,6.2 65.8,5.5L64.2,-2.2Q69.5,-1.6 75.6,-1.6Q77.9,-1.6 79.15,-2.25Q80.4,-2.9 80.95,-4.5Q81.5,-6.1 81.5,-9.3L81.5,-71.2L18.3,-71.2L18.3,6.8L10.2,6.8ZM22.3,-58.9L28.6,-62.5Q31.5,-57.2 36.6,-47Q41.7,-36.8 46.3,-27.6L49.7,-20.8L43,-16.8L41.8,-19.3Q36.3,-31.1 31.05,-41.85Q25.8,-52.6 22.3,-58.9ZM25.9,-6.8L19.5,-11.3Q27.1,-22.1 33.6,-36.15Q40.1,-50.2 44.4,-65.2L51.3,-62.8Q46.8,-47.2 40.15,-32.5Q33.5,-17.8 25.9,-6.8ZM51.3,-54.1L57.5,-58.2Q62.1,-49.9 68.7,-36.9Q75.3,-23.9 79.9,-14.2L73.4,-10.3Q68.8,-20.3 62.15,-33.5Q55.5,-46.7 51.3,-54.1ZM51,-4.6L44.7,-9Q53.9,-21 60.7,-35.15Q67.5,-49.3 71.7,-63.9L78.6,-61.6Q74.4,-46.4 67.5,-32Q60.6,-17.6 51,-4.6Z"></path><path transform="translate(300 100)" d="M42.2,-82.2L50.6,-84.5Q51,-83.7 51.65,-82.45Q52.3,-81.2 53.1,-79.6Q57.4,-71.1 58.5,-68.9L50.2,-66.5Q46.3,-74.6 43.5,-79.8L42.2,-82.2ZM8.3,-72.9L91.6,-72.9L91.6,-50.9L83.3,-50.9L83.3,-65.2L16.5,-65.2L16.5,-51L8.3,-51L8.3,-72.9ZM21.2,-54.6L78.6,-54.6L78.6,-47L54.7,-32.3L54.7,-6.9Q54.7,-1.5 53.7,1.25Q52.7,4 50.3,5.15Q47.9,6.3 43.3,6.4Q37.9,6.5 29.5,5.6L27.9,-2.2Q34.9,-1.2 40.4,-1.2Q43.1,-1.2 44.3,-1.75Q45.5,-2.3 45.95,-3.95Q46.4,-5.6 46.4,-9.1L46.4,-35.5L64.5,-46.9L21.2,-46.9L21.2,-54.6ZM5.3,-28.9L94.4,-28.9L94.4,-21.1L5.3,-21.1L5.3,-28.9Z"></path><path transform="translate(400 100)" d="M20.6,4.5L15.5,-1.6Q17.4,-3.1 18,-4.35Q18.6,-5.6 18.6,-7.7L18.6,-44L4.4,-44L4.4,-52.3L26.8,-52.3L26.8,-10.4L35.5,-17Q37.7,-18.7 39.85,-20.35Q42,-22 44.2,-23.6L47,-15.6L42.8,-12.6L25.9,-0.2Q23.8,1.6 22,3.1L20.6,4.5ZM12,-78.1L18.3,-83.5Q21.6,-79.9 22.4,-79.1Q31.2,-69.5 34.5,-65.7L28,-60.1Q24.3,-64.5 20.9,-68.1Q12.3,-77.8 12,-78.1ZM35.9,-51.2L95.5,-51.2L95.5,-42.9L35.9,-42.9L35.9,-51.2ZM61.5,-83.9L69.7,-83.9L69.7,7.3L61.5,7.3L61.5,-83.9Z"></path><path transform="translate(500 100)" d="M62.3,-74.7L69.7,-74.7L69.7,-15.4L62.3,-15.4L62.3,-74.7ZM75.9,-1.3Q78.6,-1.2 79.8,-1.65Q81,-2.1 81.4,-3.35Q81.8,-4.6 81.8,-7.3L81.8,-83.7L89.2,-83.7L89.2,-5.7Q89.2,-0.7 88.3,1.75Q87.4,4.2 85.05,5.2Q82.7,6.2 77.9,6.2Q71.5,6.2 67,5.7L65.5,-2.1Q69.9,-1.5 75.9,-1.3ZM7.1,-0.5L3,-7.5Q17.6,-16.1 27.75,-26.1Q37.9,-36.1 44.7,-49.2L50.9,-45.1Q42.9,-30.6 32.7,-20.2Q22.5,-9.8 7.1,-0.5ZM16.6,-83.8L24.4,-83.8Q24.4,-82.1 24.6,-77.3Q24.7,-74.4 24.85,-70.95Q25,-67.5 25.3,-63.2Q26.3,-41.2 28.9,-28.1Q31.5,-15 35.9,-8Q37.7,-5.1 39.1,-4.05Q40.5,-3 41.8,-3Q43.4,-3 44.55,-4.55Q45.7,-6.1 46.5,-10.1Q47.1,-12.9 47.6,-16.05Q48.1,-19.2 48.5,-21.9L55.6,-19Q53.6,-9.9 52.6,-6Q51,0.2 48.3,3.05Q45.6,5.9 41.6,5.9Q38.4,5.9 35.45,3.65Q32.5,1.4 29.1,-4Q24.2,-12.2 21.4,-26.35Q18.6,-40.5 17.4,-63.9Q17.1,-69.8 16.9,-74.65Q16.7,-79.5 16.6,-83.8ZM29.3,-77.3L33.8,-81.8Q36.9,-79.1 40.85,-75.3Q44.8,-71.5 47.6,-68.4L42.7,-63.5Q40,-66.7 36.15,-70.65Q32.3,-74.6 29.3,-77.3ZM4.1,-55.2L54.5,-63.7L55.5,-56L5.2,-47.6L4.1,-55.2Z"></path><path transform="translate(0 200)" d="M23.9,-65.3L1.2,-65.3L1.2,-73.2L55.6,-73.2L55.6,-65.3L32.8,-65.3L32.8,-0L23.9,-0L23.9,-65.3ZM89.6,-53.1Q97.7,-53.1 102.8,-47.6Q107.9,-42.1 107.9,-32L107.9,-0L99.4,-0L99.4,-29.6Q99.4,-37 96.45,-41Q93.5,-45 87.7,-45Q83.9,-45 80.55,-43.25Q77.2,-41.5 75.1,-38.05Q73,-34.6 73,-29.5L73,-0L64.5,-0L64.5,-76.1L73,-76.1L73,-44.1Q75.7,-48.5 80,-50.8Q84.3,-53.1 89.6,-53.1Z"></path><path transform="translate(115 200)" d="M29.3,-53.1Q36.8,-53.1 42.25,-49.15Q47.7,-45.2 50,-38.55Q52.3,-31.9 51.1,-24.3L13.7,-24.3Q14,-18.3 16.3,-14.35Q18.6,-10.4 22.2,-8.55Q25.8,-6.7 30.4,-6.7Q34.7,-6.7 37.85,-8.4Q41,-10.1 43,-13.7L49.5,-10Q47.5,-4.7 42.05,-1.8Q36.6,1.1 29.9,1.1Q22.9,1.1 17.15,-2.1Q11.4,-5.3 8.05,-11.45Q4.7,-17.6 4.7,-26.2Q4.7,-34.5 8.05,-40.6Q11.4,-46.7 17,-49.9Q22.6,-53.1 29.3,-53.1ZM29,-45.3Q25.3,-45.3 22.2,-43.75Q19.1,-42.2 16.9,-39Q14.7,-35.8 14,-31.2L42.3,-31.2Q42.1,-35.6 40.4,-38.8Q38.7,-42 35.75,-43.65Q32.8,-45.3 29,-45.3Z"></path><path transform="translate(170 200)" d=""></path><path transform="translate(197 200)" d="M17.6,-0L8.7,-0L8.7,-73.2L31.2,-73.2Q38.6,-73.2 44.45,-70.3Q50.3,-67.4 53.6,-62.25Q56.9,-57.1 56.9,-50.5Q56.9,-43.9 53.65,-38.75Q50.4,-33.6 44.55,-30.75Q38.7,-27.9 31.2,-27.9L17.6,-27.9L17.6,-0ZM30.1,-65.4L17.6,-65.4L17.6,-35.7L30.1,-35.7Q38.5,-35.7 43,-39.85Q47.5,-44 47.5,-50.5Q47.5,-57 43,-61.2Q38.5,-65.4 30.1,-65.4Z"></path><path transform="translate(256 200)" d="M29.5,-53.1Q31.9,-53.1 33.95,-52.45Q36,-51.8 37.3,-50.8L34.2,-43.9Q32.2,-45.1 29.4,-45.1Q25.7,-45.1 22.7,-43.05Q19.7,-41 17.95,-36.8Q16.2,-32.6 16.2,-26.5L16.2,-0L7.7,-0L7.7,-51.9L15.2,-51.9Q15.4,-46.9 15.8,-43.4Q18,-48.3 21.5,-50.7Q25,-53.1 29.5,-53.1Z"></path><path transform="translate(293 200)" d="M4.7,-26Q4.7,-33.8 8.15,-40Q11.6,-46.2 17.3,-49.65Q23,-53.1 29.6,-53.1Q36.2,-53.1 41.9,-49.7Q47.6,-46.3 51,-40.1Q54.4,-33.9 54.4,-26Q54.4,-18.1 51,-11.95Q47.6,-5.8 41.9,-2.35Q36.2,1.1 29.6,1.1Q23,1.1 17.25,-2.35Q11.5,-5.8 8.1,-11.95Q4.7,-18.1 4.7,-26ZM13.7,-26Q13.7,-20.1 15.8,-15.8Q17.9,-11.5 21.5,-9.2Q25.1,-6.9 29.6,-6.9Q34.1,-6.9 37.7,-9.2Q41.3,-11.5 43.35,-15.8Q45.4,-20.1 45.4,-26Q45.4,-31.9 43.35,-36.2Q41.3,-40.5 37.7,-42.8Q34.1,-45.1 29.6,-45.1Q25.1,-45.1 21.5,-42.8Q17.9,-40.5 15.8,-36.2Q13.7,-31.9 13.7,-26Z"></path><path transform="translate(352 200)" d="M11.9,-61.2Q9.7,-61.2 8,-62.95Q6.3,-64.7 6.3,-67Q6.3,-69.3 7.95,-71.05Q9.6,-72.8 11.9,-72.8Q14.3,-72.8 15.95,-71.1Q17.6,-69.4 17.6,-67Q17.6,-64.6 15.95,-62.9Q14.3,-61.2 11.9,-61.2ZM-0.8,24.4Q-4,24.4 -7,23.3Q-10,22.2 -11.9,20L-6.8,13.8Q-4.3,16.4 -1,16.4Q3,16.4 5.35,13.65Q7.7,10.9 7.7,4.1L7.7,-51.9L16.2,-51.9L16.2,4.4Q16.2,11.4 13.75,15.85Q11.3,20.3 7.45,22.35Q3.6,24.4 -0.8,24.4Z"></path><path transform="translate(376 200)" d="M29.3,-53.1Q36.8,-53.1 42.25,-49.15Q47.7,-45.2 50,-38.55Q52.3,-31.9 51.1,-24.3L13.7,-24.3Q14,-18.3 16.3,-14.35Q18.6,-10.4 22.2,-8.55Q25.8,-6.7 30.4,-6.7Q34.7,-6.7 37.85,-8.4Q41,-10.1 43,-13.7L49.5,-10Q47.5,-4.7 42.05,-1.8Q36.6,1.1 29.9,1.1Q22.9,1.1 17.15,-2.1Q11.4,-5.3 8.05,-11.45Q4.7,-17.6 4.7,-26.2Q4.7,-34.5 8.05,-40.6Q11.4,-46.7 17,-49.9Q22.6,-53.1 29.3,-53.1ZM29,-45.3Q25.3,-45.3 22.2,-43.75Q19.1,-42.2 16.9,-39Q14.7,-35.8 14,-31.2L42.3,-31.2Q42.1,-35.6 40.4,-38.8Q38.7,-42 35.75,-43.65Q32.8,-45.3 29,-45.3Z"></path><path transform="translate(431 200)" d="M29.5,-6.9Q33.3,-6.9 36.25,-8.55Q39.2,-10.2 41.4,-13.7L48.1,-9.8Q45.3,-4.3 40.55,-1.6Q35.8,1.1 29.7,1.1Q22.7,1.1 17,-2.3Q11.3,-5.7 8,-11.85Q4.7,-18 4.7,-26Q4.7,-34 8,-40.15Q11.3,-46.3 17,-49.7Q22.7,-53.1 29.7,-53.1Q35.8,-53.1 40.55,-50.4Q45.3,-47.7 48.1,-42.2L41.4,-38.3Q39.2,-41.8 36.25,-43.45Q33.3,-45.1 29.5,-45.1Q24.9,-45.1 21.35,-42.85Q17.8,-40.6 15.75,-36.25Q13.7,-31.9 13.7,-26Q13.7,-20.1 15.75,-15.75Q17.8,-11.4 21.35,-9.15Q24.9,-6.9 29.5,-6.9Z"></path><path transform="translate(482 200)" d="M33.1,-8.7L35.9,-1.7Q31.8,1.1 25.4,1.1Q18.5,1.1 14.1,-2.85Q9.7,-6.8 9.7,-16.8L9.7,-44.6L1.1,-44.6L1.1,-52L9.7,-52L9.7,-66.5L18.2,-66.5L18.2,-52L33.3,-52L33.3,-44.6L18.2,-44.6L18.2,-17.8Q18.2,-11.6 20.5,-9.25Q22.8,-6.9 26.4,-6.9Q28.2,-6.9 29.85,-7.35Q31.5,-7.8 33.1,-8.7Z"></path><path transform="translate(519 200)" d=""></path><path transform="translate(546 200)" d="M17.6,-0L8.7,-0L8.7,-73.2L53.6,-73.2L53.6,-65.3L17.6,-65.3L17.6,-40.6L49.8,-40.6L49.8,-32.7L17.6,-32.7L17.6,-0Z"></path><path transform="translate(602 200)" d="M4.7,-26Q4.7,-33.8 8.15,-40Q11.6,-46.2 17.3,-49.65Q23,-53.1 29.6,-53.1Q36.2,-53.1 41.9,-49.7Q47.6,-46.3 51,-40.1Q54.4,-33.9 54.4,-26Q54.4,-18.1 51,-11.95Q47.6,-5.8 41.9,-2.35Q36.2,1.1 29.6,1.1Q23,1.1 17.25,-2.35Q11.5,-5.8 8.1,-11.95Q4.7,-18.1 4.7,-26ZM13.7,-26Q13.7,-20.1 15.8,-15.8Q17.9,-11.5 21.5,-9.2Q25.1,-6.9 29.6,-6.9Q34.1,-6.9 37.7,-9.2Q41.3,-11.5 43.35,-15.8Q45.4,-20.1 45.4,-26Q45.4,-31.9 43.35,-36.2Q41.3,-40.5 37.7,-42.8Q34.1,-45.1 29.6,-45.1Q25.1,-45.1 21.5,-42.8Q17.9,-40.5 15.8,-36.2Q13.7,-31.9 13.7,-26Z"></path><path transform="translate(661 200)" d="M29.5,-53.1Q31.9,-53.1 33.95,-52.45Q36,-51.8 37.3,-50.8L34.2,-43.9Q32.2,-45.1 29.4,-45.1Q25.7,-45.1 22.7,-43.05Q19.7,-41 17.95,-36.8Q16.2,-32.6 16.2,-26.5L16.2,-0L7.7,-0L7.7,-51.9L15.2,-51.9Q15.4,-46.9 15.8,-43.4Q18,-48.3 21.5,-50.7Q25,-53.1 29.5,-53.1Z"></path><path transform="translate(698 200)" d=""></path><path transform="translate(724 200)" d="M28.3,-14.7L45,-73.3L52.5,-73.3L70.5,-14.7L87.1,-73.2L95.7,-73.2L73.6,-0L66.5,-0L48.5,-56.7L31.3,-0L24.3,-0L0.9,-73.2L10.3,-73.2L28.3,-14.7Z"></path><path transform="translate(821 200)" d="M29.3,-53.1Q36.8,-53.1 42.25,-49.15Q47.7,-45.2 50,-38.55Q52.3,-31.9 51.1,-24.3L13.7,-24.3Q14,-18.3 16.3,-14.35Q18.6,-10.4 22.2,-8.55Q25.8,-6.7 30.4,-6.7Q34.7,-6.7 37.85,-8.4Q41,-10.1 43,-13.7L49.5,-10Q47.5,-4.7 42.05,-1.8Q36.6,1.1 29.9,1.1Q22.9,1.1 17.15,-2.1Q11.4,-5.3 8.05,-11.45Q4.7,-17.6 4.7,-26.2Q4.7,-34.5 8.05,-40.6Q11.4,-46.7 17,-49.9Q22.6,-53.1 29.3,-53.1ZM29,-45.3Q25.3,-45.3 22.2,-43.75Q19.1,-42.2 16.9,-39Q14.7,-35.8 14,-31.2L42.3,-31.2Q42.1,-35.6 40.4,-38.8Q38.7,-42 35.75,-43.65Q32.8,-45.3 29,-45.3Z"></path><path transform="translate(876 200)" d="M33.2,-53.1Q39.1,-53.1 44.35,-49.85Q49.6,-46.6 52.8,-40.45Q56,-34.3 56,-26Q56,-17.6 52.8,-11.45Q49.6,-5.3 44.35,-2.1Q39.1,1.1 33.2,1.1Q28,1.1 23.3,-1.4Q18.6,-3.9 15.8,-8.9Q15.4,-4.6 15.2,-0L7.7,-0L7.7,-76.1L16.2,-76.1L16.2,-43.8Q19.1,-48.4 23.6,-50.75Q28.1,-53.1 33.2,-53.1ZM32.1,-6.9Q36.6,-6.9 39.95,-9.15Q43.3,-11.4 45.2,-15.7Q47.1,-20 47.1,-26Q47.1,-32 45.25,-36.3Q43.4,-40.6 40,-42.8Q36.6,-45 32.1,-45Q28,-45 24.4,-43.1Q20.8,-41.2 18.5,-36.95Q16.2,-32.7 16.2,-26Q16.2,-19.3 18.5,-15Q20.8,-10.7 24.4,-8.8Q28,-6.9 32.1,-6.9Z"></path></svg>